<svg width="600" height="687" viewBox="0 0 600 687" fill="none" xmlns="http://www.w3.org/2000/svg">
<path fill-rule="evenodd" clip-rule="evenodd" d="M310.509 150.967C347.73 165.04 375.902 104.687 414.517 95.0746C469.852 81.3006 542.051 43.6846 583.292 83.0654C622.678 120.674 579.277 190.389 570.644 244.158C564.613 281.721 563.563 322.943 539.986 352.8C517.008 381.899 446.51 368.43 443.341 405.372C436.97 479.645 533.321 540.856 517.606 613.726C507.129 662.305 425.394 705.959 384.653 677.502C316.211 629.698 349.542 503.292 284.525 450.925C252.418 425.066 218.427 502.977 178.002 511.06C119.286 522.801 -5.6806 567.319 0.3598 507.746C9.08468 421.697 194.373 427.279 195.266 340.794C196.04 265.887 34.9031 296.734 3.24012 228.844C-15.5957 188.457 76.4032 177.437 102.099 141.028C131.97 98.7024 112.647 -1.96798 164.393 0.499637C234.998 3.86657 244.392 125.967 310.509 150.967Z" fill="#5986F3"/>
</svg>
