<svg width="741" height="678" viewBox="0 0 741 678" fill="none" xmlns="http://www.w3.org/2000/svg">
<path fill-rule="evenodd" clip-rule="evenodd" d="M337.181 68.8288C396.908 45.0017 465.761 41.6865 525.35 65.8565C585.222 90.1413 634.478 139.733 659.179 199.435C682.049 254.711 665.588 315.914 653.007 374.397C642.034 425.399 626.576 475.531 591.478 514.128C557.087 551.947 508.551 569.078 460.391 586.215C405.985 605.575 349.202 638.924 294.741 619.72C239.678 600.303 222.323 533.647 184.701 488.999C137.632 433.139 39.8455 398.281 46.8846 325.575C53.9563 252.53 158.657 238.831 213.628 190.213C257.96 151.005 282.211 90.7582 337.181 68.8288Z" fill="#F37B85"/>
</svg>
