<svg width="663" height="670" viewBox="0 0 663 670" fill="none" xmlns="http://www.w3.org/2000/svg">
<path fill-rule="evenodd" clip-rule="evenodd" d="M341.335 2.84655C413.8 -8.1235 500.639 12.2214 544.808 70.7071C588.39 128.415 531.174 213.055 552.315 282.212C572.779 349.156 662.87 385.052 662.301 455.051C661.705 528.263 611.084 597.697 549.427 637.178C489.17 675.763 411.616 674.003 341.335 660.577C279.948 648.849 236.941 600.523 183.968 567.361C125.589 530.813 44.9939 518.881 15.5442 456.619C-14.6206 392.846 3.17957 314.308 34.3358 251.013C63.0749 192.629 127.579 167.117 178.186 126.208C232.538 82.2718 272.233 13.3076 341.335 2.84655Z" fill="#FFAF8B"/>
</svg>
