<svg width="29" height="24" viewBox="0 0 29 24" fill="none" xmlns="http://www.w3.org/2000/svg">
<path d="M20.2245 17.0245C21.4439 16.3425 21.2859 13.7145 19.8727 11.1505C19.2665 10.0465 18.5211 9.15252 17.7758 8.52752C16.8845 9.1931 15.8049 9.55405 14.6951 9.55752C13.5835 9.55505 12.502 9.19405 11.6093 8.52752C10.864 9.15252 10.1206 10.0475 9.51245 11.1505C8.09828 13.7135 7.94226 16.3425 9.16462 17.0245C9.70922 17.3365 10.2836 17.1025 10.8759 16.5285C10.765 17.1469 10.7095 17.7741 10.71 18.4025C10.71 21.3405 11.8429 23.7145 13.2372 23.7145C14.0779 23.7145 14.4943 22.8495 14.6941 21.5265C14.8928 22.8405 15.3102 23.7145 16.145 23.7145C17.5333 23.7145 18.6752 21.3395 18.6752 18.4025C18.6752 17.7425 18.6136 17.1125 18.5082 16.5295C19.1045 17.1045 19.6769 17.3425 20.2235 17.0265L20.2245 17.0245ZM14.6931 8.55752C15.2569 8.566 15.8168 8.46154 16.3401 8.25023C16.8635 8.03892 17.3398 7.72499 17.7415 7.32669C18.1431 6.92839 18.462 6.45369 18.6796 5.93021C18.8972 5.40673 19.0092 4.84493 19.009 4.2775C19.0088 3.71007 18.8964 3.14835 18.6785 2.62502C18.4605 2.10169 18.1413 1.62722 17.7394 1.2292C17.3374 0.831191 16.8609 0.51759 16.3374 0.306652C15.8139 0.095714 15.2539 -0.00834784 14.6901 0.000522966C13.5737 0.0180875 12.5089 0.476786 11.7257 1.27757C10.9425 2.07835 10.5038 3.15697 10.5041 4.2805C10.5045 5.40404 10.9441 6.48234 11.7278 7.28257C12.5116 8.0828 13.5766 8.54075 14.6931 8.55752ZM23.2337 11.2715C24.1418 11.2448 25.0039 10.863 25.6368 10.2072C26.2698 9.55142 26.6238 8.67322 26.6238 7.75902C26.6238 6.84483 26.2698 5.96662 25.6368 5.31082C25.0039 4.65501 24.1418 4.27323 23.2337 4.24652C22.3076 4.24666 21.4196 4.61695 20.7648 5.27596C20.1101 5.93496 19.7424 6.82868 19.7425 7.76052C19.7426 8.69236 20.1106 9.58598 20.7655 10.2448C21.4205 10.9036 22.3086 11.2737 23.2347 11.2735L23.2337 11.2715ZM27.4871 13.4015C26.9882 12.4935 26.378 11.7595 25.7659 11.2465C25.0336 11.7925 24.147 12.0886 23.2357 12.0915C22.4844 12.0915 21.7847 11.8845 21.1726 11.5415C21.6655 12.6345 21.9706 13.7415 22.0272 14.7315C22.1206 16.2475 21.6496 17.3715 20.7075 17.8965C20.5056 18.0082 20.286 18.0839 20.0585 18.1205C20.0019 18.5125 19.9631 18.9205 19.9631 19.3505C19.9631 21.7635 20.8923 23.7125 22.0382 23.7125C22.7278 23.7125 23.0717 23.0025 23.2347 21.9165C23.3967 22.9965 23.7395 23.7125 24.4272 23.7125C25.5651 23.7125 26.5042 21.7625 26.5042 19.3525C26.5042 18.8095 26.4516 18.2925 26.3651 17.8125C26.8541 18.2855 27.3251 18.4805 27.7743 18.2205C28.7751 17.6605 28.6459 15.5025 27.4861 13.4005L27.4871 13.4015ZM6.15245 11.2715C6.84265 11.2711 7.51725 11.0648 8.09095 10.6787C8.66464 10.2925 9.11168 9.74389 9.37554 9.10212C9.6394 8.46035 9.70823 7.75427 9.57334 7.07314C9.43845 6.39201 9.10588 5.76642 8.61769 5.27546C8.1295 4.7845 7.5076 4.45021 6.83063 4.31486C6.15365 4.17951 5.45199 4.24918 4.81436 4.51505C4.17673 4.78092 3.63175 5.23107 3.24834 5.80857C2.86492 6.38607 2.66027 7.065 2.66027 7.75952C2.66053 8.69141 3.02854 9.58506 3.6834 10.244C4.33825 10.9029 5.22634 11.2733 6.15245 11.2735V11.2715ZM8.6717 17.8935C7.08959 17.0085 6.94449 14.3695 8.21853 11.5395C7.58879 11.8993 6.87758 12.0897 6.15344 12.0925C5.20338 12.0925 4.33282 11.7725 3.61928 11.2465C3.0081 11.7585 2.3989 12.4925 1.89803 13.3995C0.738283 15.5035 0.611078 17.6615 1.61282 18.2195C2.06002 18.4775 2.53207 18.2845 3.01803 17.8135C2.92877 18.3213 2.88388 18.8359 2.88387 19.3515C2.88387 21.7635 3.81307 23.7115 4.9589 23.7115C5.64859 23.7115 5.99244 23.0015 6.15543 21.9165C6.3194 22.9965 6.66226 23.7125 7.34797 23.7125C8.48785 23.7125 9.42499 21.7625 9.42499 19.3525C9.42499 18.9195 9.38524 18.5105 9.3286 18.1185C9.09859 18.082 8.87665 18.0056 8.67269 17.8925L8.6717 17.8935Z" fill="white"/>
</svg>
