<svg width="24" height="25" viewBox="0 0 24 25" fill="none" xmlns="http://www.w3.org/2000/svg">
<path d="M19 3.17871H5C3.89543 3.17871 3 4.10612 3 5.25014V19.7501C3 20.8942 3.89543 21.8216 5 21.8216H19C20.1046 21.8216 21 20.8942 21 19.7501V5.25014C21 4.10612 20.1046 3.17871 19 3.17871Z" stroke="white" stroke-width="2" stroke-linecap="round" stroke-linejoin="round"/>
<path d="M8.5 10.4284C9.32843 10.4284 10 9.73287 10 8.87486C10 8.01685 9.32843 7.32129 8.5 7.32129C7.67157 7.32129 7 8.01685 7 8.87486C7 9.73287 7.67157 10.4284 8.5 10.4284Z" stroke="white" stroke-width="2" stroke-linecap="round" stroke-linejoin="round"/>
<path d="M21 15.6073L16 10.4287L5 21.8216" stroke="white" stroke-width="2" stroke-linecap="round" stroke-linejoin="round"/>
</svg>
